<svg width="392" height="149" viewBox="0 0 392 149" fill="none" xmlns="http://www.w3.org/2000/svg">
<g clip-path="url(#clip0_2315_6151)">
<path d="M81.4109 20.6247C81.4109 18.281 83.441 16.781 86.4305 16.781C88.7975 16.8586 91.1276 17.3933 93.2939 18.356V15.6091C91.2714 15.2157 89.2167 15.0117 87.1567 14.9998C81.5691 14.9998 78.077 17.3154 78.077 21.506C78.077 25.7729 81.7889 27.5183 85.2975 29.1681C88.4415 30.6464 91.4222 32.048 91.4222 35.1184C91.4222 38.3903 89.2616 40.0028 85.6017 40.0028C83.1032 39.9229 80.6446 39.3495 78.3656 38.3153V40.9778C80.5529 41.4453 82.7793 41.7027 85.015 41.7465C90.3791 41.7465 95.1286 39.6278 95.1286 34.3122C95.1286 29.7538 91.1068 27.8889 87.4186 26.1788C84.2952 24.7305 81.4109 23.3931 81.4109 20.6247Z" fill="black"/>
<path fill-rule="evenodd" clip-rule="evenodd" d="M210.615 123.357L210.559 123.282L189.624 68.3071H174.454V69.8071C178.877 70.8664 181.243 71.6821 181.243 73.9694C181.075 75.6274 180.628 77.2441 179.92 78.7508L161.695 127.96H176.391V126.46C171.986 125.391 169.611 124.585 169.611 122.288C169.629 121.564 169.755 120.847 169.984 120.16L174.193 108.188H196.385L203.78 127.96H217.172V126.46C213.549 125.569 211.295 124.875 210.615 123.357ZM175.432 104.738L185.461 77.7008L195.417 104.738H175.432Z" fill="black"/>
<path d="M119.452 80.3238H112.774C106.641 80.3238 106.393 82.9323 105.97 87.357L105.948 87.5894H103.639L104.011 77.4268H141.355L141.728 87.5894H139.428C139.409 87.4083 139.392 87.2301 139.375 87.0549C138.961 82.8138 138.718 80.3238 132.592 80.3238H125.915V127.705H119.452V80.3238Z" fill="black"/>
<path d="M6.23669 91.8734C6.23669 88.6108 5.45442 87.5328 0.5 86.8484V85.9014H27.3116L27.6003 92.8951H25.8402C25.797 92.6716 25.7574 92.4548 25.7191 92.245C25.2444 89.6481 24.9658 88.1234 20.597 88.1234H14.6368C11.3867 88.1234 11.1818 88.8078 11.1818 91.8734V103.123H18.3899C23.1022 103.123 23.4933 101.051 23.9776 98.3701H25.2814V110.201H23.9776L23.9461 110.021C23.3921 106.836 23.1344 105.354 18.3899 105.354H11.1818V118.779C11.1818 122.107 11.7033 122.107 15.8382 122.107H21.9754C25.8495 122.107 26.1196 120.907 26.9204 116.557H28.6712L28.2708 124.329H6.23669V91.8734Z" fill="black"/>
<path fill-rule="evenodd" clip-rule="evenodd" d="M352.931 105.091C352.931 93.9538 361.565 84.9258 372.209 84.9258C382.853 84.9258 391.477 93.9631 391.477 105.091C391.477 116.219 382.853 125.247 372.209 125.247C361.565 125.247 352.931 116.229 352.931 105.091ZM358.064 105.091C358.064 114.701 364.386 122.491 372.209 122.491C380.022 122.491 386.348 114.701 386.348 105.091C386.348 95.4818 380.032 87.6914 372.209 87.6914C364.386 87.6914 358.064 95.4818 358.064 105.091Z" fill="black"/>
<path d="M307.219 73.5834C309.144 74.1424 311.139 74.4171 313.142 74.3991C315.148 74.4124 317.145 74.1378 319.074 73.5834V77.2208H307.219V73.5834Z" fill="black"/>
<path fill-rule="evenodd" clip-rule="evenodd" d="M335.065 122.866V122.81L319 80.7074H307.387V81.8604C310.758 82.6761 312.583 83.2854 312.583 85.0574C312.44 86.3268 312.094 87.5644 311.559 88.7231L297.59 126.391H308.867V125.248C305.478 124.423 303.652 123.823 303.652 122.051C303.677 121.497 303.774 120.948 303.941 120.42L307.173 111.251H324.168L329.831 126.391H340.075V125.248C337.308 124.563 335.577 124.038 335.065 122.866ZM308.132 108.598L315.806 87.9168L323.423 108.598H308.132Z" fill="black"/>
<path d="M259.369 124.847C264.696 124.847 269.474 122.006 272.78 117.515L272.808 124.228C268.85 126.93 264.179 128.377 259.397 128.381C245.763 128.381 234.69 116.812 234.69 102.544C234.69 88.2751 245.763 76.7158 259.397 76.7158C264.915 76.7188 270.265 78.6321 274.549 82.1344V83.8874L274.8 90.7594H272.808L272.79 90.5905C272.575 88.5539 272.41 86.9809 271.504 85.9408C269.997 84.1884 268.14 82.7764 266.054 81.7974C263.967 80.8181 261.699 80.2941 259.397 80.2594C249.376 80.2594 241.237 90.2158 241.237 102.544C241.237 114.872 249.376 124.847 259.369 124.847Z" fill="black"/>
<path d="M258.921 131.962C256.648 131.974 254.383 131.681 252.187 131.09V135H265.691V131.053C263.486 131.665 261.208 131.971 258.921 131.962Z" fill="black"/>
<path d="M66.6875 84.3751C61.9938 84.3751 58.7996 86.9251 58.7996 90.9374C58.7996 95.7203 63.3479 98.0276 68.2626 100.521C74.0412 103.452 80.3265 106.641 80.3214 114.412C80.3214 123.478 72.8711 127.087 64.4896 127.087C60.9706 127.021 57.4682 126.581 54.0408 125.775V121.247C57.5805 123.003 61.4493 123.987 65.3929 124.134C71.139 124.134 74.5288 121.425 74.5288 115.8C74.5288 110.568 69.853 108.169 64.9199 105.637C59.4125 102.811 53.5844 99.82 53.5844 92.5404C53.5844 85.3874 59.1162 81.4408 67.8329 81.4311C69.2919 81.4327 70.7497 81.5111 72.2007 81.6658C74.7338 81.9938 76.7918 82.4344 77.4811 82.6031V83.9438L77.7512 91.2654H75.7207C75.7069 91.1261 75.6935 90.9889 75.6803 90.8538C75.4459 88.4545 75.2781 86.7373 73.7 85.7344C72.9392 85.3978 72.1509 85.1278 71.344 84.9281C69.8172 84.5681 68.2555 84.3827 66.6875 84.3751Z" fill="black"/>
<path d="M111.648 27.1861H123.829L123.838 15.4205H127.442V41.3235H123.838V28.6673H111.657V41.3235H108.025V19.8174C108.025 17.3847 106.89 17.2686 104.563 17.0307C104.343 17.0082 104.113 16.9847 103.872 16.958V16.3111L111.648 15.4205V27.1861Z" fill="black"/>
<path fill-rule="evenodd" clip-rule="evenodd" d="M151.6 14.9998C143.321 14.9998 140.704 20.156 140.704 28.3872C140.704 36.0466 143.051 41.7465 151.6 41.7465C159.842 41.7465 162.412 36.5528 162.412 28.3872C162.412 20.7372 159.926 14.9998 151.6 14.9998ZM151.6 40.2372C145.081 40.2372 144.792 33.1966 144.792 28.3872C144.792 23.081 145.239 16.4997 151.6 16.4997C157.961 16.4997 158.343 23.5404 158.343 28.3872C158.343 33.6653 157.886 40.2372 151.6 40.2372Z" fill="black"/>
<path fill-rule="evenodd" clip-rule="evenodd" d="M172.042 15.4229H182.1C187.147 15.4229 193.424 15.4698 193.424 22.1635C193.424 28.8573 186.766 28.8573 181.69 28.8573H179.828V41.326H176.205V19.5011C176.205 17.1573 175.618 16.5854 172.042 16.0792V15.4229ZM179.828 27.3573H181.625C185.49 27.3573 189.364 27.1323 189.345 22.1635C189.345 18.3479 187.092 16.9323 183.367 16.9323C180.033 16.9323 179.828 17.2698 179.828 19.5011V27.3573Z" fill="black"/>
<path fill-rule="evenodd" clip-rule="evenodd" d="M211.994 15.4205H201.917V16.0767C205.484 16.583 206.08 17.1549 206.08 19.4986V41.3235H209.693V28.8548H211.556C216.641 28.8548 223.309 28.8548 223.309 22.1611C223.309 15.4674 217.032 15.4205 211.994 15.4205ZM211.5 27.3548H209.693V19.4986C209.693 17.2674 209.926 16.9299 213.242 16.9299C216.967 16.9299 219.239 18.3455 219.239 22.1611C219.239 27.1298 215.356 27.3548 211.5 27.3548Z" fill="black"/>
<path d="M232.551 17.0284C232.334 17.0066 232.106 16.9838 231.867 16.958V16.358L239.652 15.4205V41.3235H236.03V19.8174C236.03 17.3769 234.942 17.2679 232.551 17.0284Z" fill="black"/>
<path d="M272.184 36.4322H272.09L259.025 15.4229H250.699V16.0792C254.275 16.6229 254.871 16.8948 254.871 19.9604V41.326H257.032V18.7511H257.115L271.178 41.3447H274.298V15.4229H272.147L272.184 36.4322Z" fill="black"/>
<path d="M304.683 31.4716C304.683 28.4341 304.106 28.1247 300.492 27.5903L300.455 26.9341H308.268V40.6215C305.401 41.3076 302.47 41.6847 299.524 41.7465C291.012 41.7465 287.184 36.4309 287.184 27.356C287.184 20.006 289.773 14.9998 298.509 14.9998C304.786 14.9998 307.822 17.5872 308.026 20.7841H303.947C303.742 19.2748 302.802 16.7341 298.416 16.7341C291.934 16.7341 291.254 22.8654 291.254 27.0466C291.254 33.5059 293.508 40.0028 301.498 40.0028C302.57 40.0372 303.642 39.9237 304.683 39.6653V31.4716Z" fill="black"/>
</g>
<defs>
<clipPath id="clip0_2315_6151">
<rect width="391" height="149" fill="white" transform="translate(0.5)"/>
</clipPath>
</defs>
</svg>
