<svg xmlns="http://www.w3.org/2000/svg" width="128.658" height="30" viewBox="0 0 128.658 30"><defs><style>.a{fill:#a666b5;}.b{fill:#2ba3d9;}.c{fill:#eb452e;}.d{fill:#f78834;}.e{fill:#ffc445;}.f{fill:#00998c;}.g{fill:#3d3d3d;}</style></defs><g transform="translate(0 0)"><g transform="translate(0 0)"><path class="a" d="M148.188,218.156a1.674,1.674,0,0,0-.22-.829l-3.1,1.81a.121.121,0,0,1,.015.059v8.714a.047.047,0,0,0,.071.041l3.207-1.875a.048.048,0,0,0,.023-.041Z" transform="translate(-122.089 -209.827)"/><path class="b" d="M129.628,210.248l9.633,5.631a.112.112,0,0,1,.042.043l3.1-1.81a1.648,1.648,0,0,0-.6-.608l-11.409-6.67a1.623,1.623,0,0,0-1.641,0l-2.411,1.41a.048.048,0,0,0,0,.083l3.274,1.914.015.007" transform="translate(-116.521 -206.612)"/><path class="c" d="M131.023,241.035a.117.117,0,0,1-.059.015v3.621a1.622,1.622,0,0,0,.82-.223l11.411-6.671a1.662,1.662,0,0,0,.819-1.436V233.52a.047.047,0,0,0-.07-.041Z" transform="translate(-117.916 -214.671)"/><path class="d" d="M127.662,242.408l-7.447-4.353a.047.047,0,0,0-.07.041v3.75a.048.048,0,0,0,.023.041l6.732,3.935a1.617,1.617,0,0,0,.818.223v-3.621a.11.11,0,0,1-.057-.015" transform="translate(-114.669 -216.044)"/><path class="e" d="M115.624,219.2a.125.125,0,0,1,.015-.057l-3.1-1.811a1.679,1.679,0,0,0-.219.829V231.5a1.664,1.664,0,0,0,.717,1.371l2.515,1.471a.047.047,0,0,0,.071-.041Z" transform="translate(-112.323 -209.827)"/><path class="f" d="M115.775,217.141l7.459-4.36a.048.048,0,0,0,0-.083l-3.207-1.874a.047.047,0,0,0-.047,0l-6.744,3.942a1.653,1.653,0,0,0-.6.608l3.1,1.811a.115.115,0,0,1,.043-.043" transform="translate(-112.416 -207.874)"/></g><path class="g" d="M162.217,233.967a6.27,6.27,0,0,1-1.534-.661.406.406,0,0,1-.15-.515l.549-1.184a.393.393,0,0,1,.559-.174,5.859,5.859,0,0,0,1.231.534,6.126,6.126,0,0,0,1.837.291q2.067,0,2.068-1.186a.79.79,0,0,0-.526-.785,8.543,8.543,0,0,0-1.69-.422,12.683,12.683,0,0,1-1.985-.462,3.028,3.028,0,0,1-1.33-.915,2.7,2.7,0,0,1-.563-1.82,2.94,2.94,0,0,1,1.173-2.443,5.016,5.016,0,0,1,3.167-.915,8.417,8.417,0,0,1,2.032.252,6.033,6.033,0,0,1,1.332.482.4.4,0,0,1,.174.528l-.547,1.179a.392.392,0,0,1-.539.186,5.164,5.164,0,0,0-2.469-.6,2.917,2.917,0,0,0-1.542.332,1,1,0,0,0-.526.874.873.873,0,0,0,.563.855,8.4,8.4,0,0,0,1.746.473,12.582,12.582,0,0,1,1.939.462,3.023,3.023,0,0,1,1.3.885,2.605,2.605,0,0,1,.545,1.77,2.871,2.871,0,0,1-1.2,2.413,5.318,5.318,0,0,1-3.269.9,8.17,8.17,0,0,1-2.346-.342" transform="translate(-126.777 -211.623)"/><path class="g" d="M177.207,217.452h1.723a.4.4,0,0,1,.257.71l-2.006,1.949a.4.4,0,0,1-.257.1H175.71a.4.4,0,0,1-.293-.674l1.5-1.95a.4.4,0,0,1,.293-.13" transform="translate(-131.223 -209.865)"/><path class="g" d="M175.542,223.483h1.513a.4.4,0,0,1,.4.4v9.932a.4.4,0,0,1-.4.4h-1.513a.4.4,0,0,1-.4-.4v-9.932a.4.4,0,0,1,.4-.4" transform="translate(-131.172 -211.674)"/><path class="g" d="M190.086,224.5a4.93,4.93,0,0,1,1.126,3.519v5.749a.4.4,0,0,1-.4.4H189.3a.4.4,0,0,1-.4-.4v-5.428a3.194,3.194,0,0,0-.61-2.121,2.158,2.158,0,0,0-1.736-.714,2.553,2.553,0,0,0-2.013.834,3.512,3.512,0,0,0-.738,2.4v5.026a.4.4,0,0,1-.4.4H181.9a.4.4,0,0,1-.4-.4v-9.932a.4.4,0,0,1,.4-.4h1.4a.4.4,0,0,1,.4.4v.986a3.635,3.635,0,0,1,1.44-1.126,4.811,4.811,0,0,1,1.958-.382,3.933,3.933,0,0,1,2.992,1.186" transform="translate(-133.079 -211.623)"/><path class="g" d="M204.509,230a2.877,2.877,0,0,0,1.053-1.176,4.231,4.231,0,0,0,0-3.539,2.882,2.882,0,0,0-1.053-1.176,2.92,2.92,0,0,0-2.992,0,2.887,2.887,0,0,0-1.053,1.176,4.231,4.231,0,0,0,0,3.539A2.882,2.882,0,0,0,201.517,230a2.924,2.924,0,0,0,2.992,0m3.712-12.093v14.113a.4.4,0,0,1-.4.4H206.4a.4.4,0,0,1-.4-.4v-.985a3.6,3.6,0,0,1-1.413,1.146,4.432,4.432,0,0,1-1.856.382,4.865,4.865,0,0,1-2.558-.683,4.727,4.727,0,0,1-1.781-1.941,6.735,6.735,0,0,1,0-5.76,4.744,4.744,0,0,1,1.781-1.93,4.865,4.865,0,0,1,2.558-.684,4.361,4.361,0,0,1,1.79.362,3.623,3.623,0,0,1,1.385,1.086v-5.107a.4.4,0,0,1,.4-.4h1.513a.4.4,0,0,1,.4.4" transform="translate(-137.955 -209.882)"/><path class="g" d="M216.75,223.483h1.513a.4.4,0,0,1,.4.4v9.932a.4.4,0,0,1-.4.4H216.75a.4.4,0,0,1-.4-.4v-9.932a.4.4,0,0,1,.4-.4" transform="translate(-143.537 -211.674)"/><path class="g" d="M243.914,231.232a3.977,3.977,0,0,0,0-4.865,2.711,2.711,0,0,0-2.105-.925,2.682,2.682,0,0,0-2.1.925,4.012,4.012,0,0,0,0,4.865,2.678,2.678,0,0,0,2.1.925,2.707,2.707,0,0,0,2.105-.925m-4.8,2.373a4.919,4.919,0,0,1-1.875-1.961,6.319,6.319,0,0,1,0-5.679,4.937,4.937,0,0,1,1.875-1.95,5.549,5.549,0,0,1,5.411,0,4.938,4.938,0,0,1,1.875,1.95,6.319,6.319,0,0,1,0,5.679,4.92,4.92,0,0,1-1.875,1.961,5.554,5.554,0,0,1-5.411,0" transform="translate(-149.601 -211.623)"/><path class="g" d="M262.932,224.5a4.93,4.93,0,0,1,1.127,3.519v5.749a.4.4,0,0,1-.4.4h-1.514a.4.4,0,0,1-.4-.4v-5.428a3.194,3.194,0,0,0-.61-2.121,2.157,2.157,0,0,0-1.736-.714,2.553,2.553,0,0,0-2.013.834,3.516,3.516,0,0,0-.738,2.4v5.026a.4.4,0,0,1-.4.4h-1.513a.4.4,0,0,1-.4-.4v-9.932a.4.4,0,0,1,.4-.4h1.4a.4.4,0,0,1,.4.4v.986a3.633,3.633,0,0,1,1.441-1.126,4.805,4.805,0,0,1,1.957-.382,3.933,3.933,0,0,1,2.992,1.186" transform="translate(-154.936 -211.623)"/><path class="g" d="M273.819,226.036a3.089,3.089,0,0,0-.932,1.9h5.6a3.059,3.059,0,0,0-.9-1.89,2.816,2.816,0,0,0-3.759-.01m6.452,3.568h-7.366a2.965,2.965,0,0,0,1.062,1.88,3.287,3.287,0,0,0,2.133.694,3.45,3.45,0,0,0,2.378-.869.4.4,0,0,1,.574.045l.756.946a.411.411,0,0,1-.019.531,4.206,4.206,0,0,1-1.454,1.037,6.166,6.166,0,0,1-5.152-.262,4.842,4.842,0,0,1-1.912-1.96,5.924,5.924,0,0,1-.674-2.845,6.02,6.02,0,0,1,.655-2.825,4.877,4.877,0,0,1,1.819-1.96,4.968,4.968,0,0,1,2.622-.7,4.842,4.842,0,0,1,2.577.694,4.734,4.734,0,0,1,1.773,1.95,6.338,6.338,0,0,1,.637,2.9c0,.1,0,.218-.012.36a.4.4,0,0,1-.4.384" transform="translate(-159.813 -211.623)"/><path class="g" d="M293.037,232.34a.408.408,0,0,1-.152.475,2.78,2.78,0,0,1-.735.346,4.1,4.1,0,0,1-1.228.181,3.319,3.319,0,0,1-2.512-.925,3.747,3.747,0,0,1-.886-2.694v-5.168H286.3a.4.4,0,0,1-.4-.4v-1.206a.4.4,0,0,1,.4-.4h1.228V220.5a.4.4,0,0,1,.4-.4h1.513a.4.4,0,0,1,.4.4v2.05h2.243a.4.4,0,0,1,.4.4v1.206a.4.4,0,0,1-.4.4h-2.243v5.107a1.8,1.8,0,0,0,.351,1.2,1.259,1.259,0,0,0,1.016.412,2.065,2.065,0,0,0,.923-.2.392.392,0,0,1,.539.225Z" transform="translate(-164.404 -210.657)"/><path class="g" d="M216.2,218.109l1.114-.645a.282.282,0,0,1,.282,0l1.114.645a.288.288,0,0,1,.144.25v1.286a.289.289,0,0,1-.144.25l-1.114.645a.279.279,0,0,1-.282,0l-1.114-.645a.29.29,0,0,1-.143-.25v-1.286a.288.288,0,0,1,.143-.25" transform="translate(-143.448 -209.857)"/><path class="g" d="M230.182,231.211a.26.26,0,0,0-.379.012,2.669,2.669,0,0,1-.671.563,2.713,2.713,0,0,1-1.4.372,2.79,2.79,0,0,1-2.151-.915,3.953,3.953,0,0,1,.009-4.886,2.8,2.8,0,0,1,2.142-.915,2.719,2.719,0,0,1,1.4.372,2.688,2.688,0,0,1,.683.575.265.265,0,0,0,.412-.008c.285-.367.785-1.014,1.025-1.324a.271.271,0,0,0-.01-.346,3.915,3.915,0,0,0-.928-.757,4.969,4.969,0,0,0-2.558-.644,5.391,5.391,0,0,0-2.761.7,4.982,4.982,0,0,0-1.893,1.95,6.243,6.243,0,0,0,0,5.679,4.94,4.94,0,0,0,1.9,1.961,5.4,5.4,0,0,0,2.752.7,4.872,4.872,0,0,0,2.539-.653,4.11,4.11,0,0,0,1.086-.937.272.272,0,0,0-.025-.363l-1.174-1.146" transform="translate(-145.357 -211.623)"/></g></svg>